<svg
  width="200"
  height="200"
  viewBox="0 0 200 200"
  xmlns="http://www.w3.org/2000/svg"
  fill="none"
>
  <path
    d="M168.481 142.395c-.008-.31-.017-.616-.017-.941 0-1.79 0-3.819-1.326-5.707l-.001-.001c-1.375-1.957-3.584-3.118-6.061-3.186-.991-.027-1.986-.018-2.979-.01-.481.005-.962.009-1.442.009h-11.972c2.251-6.078 3.878-12.476 4.85-19.077l4.347.825a3.241 3.241 0 0 0 3.095-1.067c.787-.91 1.05-2.198.671-3.281-.356-1.019-1.203-1.726-2.322-1.938l-5.055-.961c.347-4.269.422-8.595.223-12.912l5.044-.404a3.244 3.244 0 0 0 2.7-1.847c.517-1.085.429-2.397-.224-3.341-.615-.89-1.621-1.348-2.756-1.255l-5.261.421a101.798 101.798 0 0 0-1.601-10.018l4.148-.902c.911-.199 1.646-.732 2.069-1.504a3.192 3.192 0 0 0 .295-2.216c-.397-1.819-2.107-2.936-3.9-2.549l-4.16.905a87.588 87.588 0 0 0-3.889-10.937l3.696-1.488c1.647-.663 2.516-2.308 2.068-3.912-.245-.874-.9-1.646-1.754-2.065-.788-.387-1.644-.429-2.413-.119l-4.408 1.774c-1.862-3.469-3.949-6.691-6.226-9.611l3.15-2.14c1.523-1.035 1.888-3.062.829-4.614-.998-1.461-2.845-1.819-4.298-.831l-3.953 2.685a53.012 53.012 0 0 0-7.066-6.079 41.46 41.46 0 0 0-1.795-1.214l2.48-3.312c.497-.664.675-1.504.5-2.364-.188-.929-.769-1.755-1.553-2.214-1.464-.854-3.239-.445-4.318.995l-2.855 3.813c-3.824-1.679-7.78-2.715-11.791-3.088l-.042-4.059c-.02-1.819-1.421-3.183-3.288-3.158-1.832.019-3.201 1.391-3.182 3.195l.043 4.021c-3.997.37-8.033 1.423-11.843 3.091L82.08 25.99c-1.079-1.44-2.853-1.847-4.318-.994-.784.458-1.364 1.285-1.552 2.215-.174.859.004 1.699.501 2.363l2.484 3.317c-3.149 2.006-6.125 4.444-8.879 7.277l-3.939-2.675c-1.454-.988-3.302-.629-4.299.832-1.059 1.552-.693 3.578.831 4.613l3.151 2.14c-2.258 2.918-4.334 6.143-6.195 9.623l-4.439-1.787c-.767-.308-1.618-.27-2.402.113-.851.415-1.511 1.185-1.763 2.061-.468 1.631.382 3.243 2.066 3.922l3.732 1.502a87.54 87.54 0 0 0-3.902 10.927l-4.184-.911c-1.793-.389-3.502.731-3.9 2.55-.382 1.744.635 3.342 2.364 3.719l4.158.904a99.387 99.387 0 0 0-1.62 10.015l-5.254-.421c-1.722-.142-3.162 1.076-3.303 2.828-.133 1.648.963 3.451 3.024 3.616l5.033.403a101.91 101.91 0 0 0 .234 12.913l-5.056.961c-1.717.325-2.763 1.873-2.433 3.599.31 1.624 1.848 3.069 3.878 2.686l4.345-.825a95.387 95.387 0 0 0 4.086 16.921c.24.704.497 1.419.773 2.154-1.459-.001-2.917-.005-4.376-.009-3.914-.008-7.828-.018-11.737.01-3.564.026-6.54 2.235-7.402 5.496-.339 1.284-.301 2.622-.268 3.801.01.333.02.662.02.983 0 1.63 0 3.659 1.327 5.547 1.505 2.142 3.477 2.861 5.52 3.089v10.077c-.049 1.623.819 4.392 1.381 5.814 3.134 7.92 10.684 13.053 19.235 13.076 4.77.014 9.543.01 14.313.004l44.513-.004c2.542 0 5.086.016 7.629.031 2.516.016 5.075.031 7.644.031 2.561 0 5.133-.016 7.684-.062h.344c7.401-.059 14.233-4.034 17.829-10.376 2.133-3.761 2.584-7.652 2.647-11.072l.009-7.461c3.042-.294 5.575-2.279 6.496-5.114.443-1.343.405-2.763.371-4.017z"
    fill="#F15A24"
  />
</svg>
