<svg xmlns="http://www.w3.org/2000/svg" viewBox="0 0 170 140" width="100%" height="100%">
  <!-- wheels -->
  <path d="M70.9 128.6c-8.3 0-15.5-7.1-15.5-15.5s7.1-15.5 15.5-15.5 15.5 7.1 15.5 15.5-7.1 15.5-15.5 15.5zm0-20.8c-3 0-5.4 2.4-5.4 5.4s2.4 5.4 5.4 5.4 5.4-2.4 5.4-5.4-2.4-5.4-5.4-5.4zM115.3 128.7c-8.3 0-15.5-7.1-15.5-15.5s7.1-15.5 15.5-15.5 15.5 7.1 15.5 15.5-7.1 15.5-15.5 15.5zm0-20.8c-3 0-5.4 2.4-5.4 5.4s2.4 5.4 5.4 5.4 5.4-2.4 5.4-5.4-2.4-5.4-5.4-5.4z"
        fill="#112F5B" />

  <!-- cart body -->
  <path d="M135.1 88.1H51.2L22 10.1H0V0h29.1l29.5 78.1h69.1l18.1-49H36.9L33.3 19h127.4z"
        fill="#112F5B" />
</svg>
