<svg xmlns="http://www.w3.org/2000/svg" viewBox="0 0 200 200" fill="none">
  <path
    d="M143.672 34.743c6.759 8.875 7.772 17.419-6.1 27.86-3.326 2.503-13.804 9.653-7.863 13.276 9.531 5.811 16.927-2.147 21.026-10.557 1.464-3.005 5.488-3.707 7.706-1.204 5.314 5.997 9.737 14.455 4.849 20.752-5.452 7.022-43.824 11.499-41.558 19.664.581 2.093 7.285.351 15.808-1.864 7.706-2.002 13.46-3.524 20.578-4.028 4.647-.329 8.805 2.932 9.558 7.525.738 4.506.256 8.512-1.846 12.998-1.397 2.982-4.268 5.009-7.555 5.24-13.145.921-45.501 2.756-45.566 5.425-.058 2.387 12.791 1.54 17.49 1.17 9.09-.715 19.279-1.515 27.699 1.44 1.689.593 2.522 2.496 1.831 4.145-3.331 7.957-6.784 13.775-13.15 19.683-17.552 16.292-42.725 16.078-60.689.007l-7.386 21.135c-1.365 3.906-7.307 1.835-5.941-2.073L124.286 27.33c-12.502 1.867-25.247 1.006-20.36 19.842 1.963 7.566 6.018 24.947-8.984 23.081-13.635-1.693-17.258-15.64-15.89-26.872-2.422.842-8.887 4.076-8.923 6.885-.022 1.727 8.698 14.42 10.359 16.818 8.556 12.354 16.005 23.108 7.343 29.397-10.688 7.76-19.734-16.836-34.564-29.361-3.866 2.89-6.292 6.622-7.061 11.524 7.802 7.758 35.756 29.572 35.581 38.021-.101 4.865-4.78 7.749-9.712 6.161-9.414-3.031-20.293-18.656-32.581-24.814-5.745 24.708 9.198 48.881 32.166 50.626 3.366.256 3.983 6.67-1.253 6.181-27.55-2.579-45.069-32.559-35.997-62.022a3.129 3.129 0 0 1 4.015-2.033l.013.005c15.048 5.218 31.713 27.747 36.769 26.185.681-.211.109-1.389-.295-2.004-5.674-8.648-21.724-21.29-31.845-30.69-2.274-2.112-3.353-5.262-2.687-8.291 1.12-5.092 3.267-8.666 6.773-11.842 3.45-3.127 8.737-3.093 12.169.055 5.258 4.821 8.813 9.588 13.598 15.949 5.291 7.034 9.453 12.566 11.212 11.29 6.861-4.981-20.384-32.348-20.276-41.233.101-8.251 9.214-12.007 17.33-13.298 3.14-.499 5.664 2.436 4.893 5.517-2.293 9.167-.719 20.336 9.661 21.626 7.135.887 2.937-12.092 1.841-16.339-4.219-16.596 3.233-22.107 12.776-24.527 5.227-1.327 9.897-1.442 14.885-2.484a8.636 8.636 0 0 1 8.382 2.929c3.228 3.889 6.799 6.861 10.048 11.131zM88.159 149.786c21.071 21.031 51.996 14.028 64.408-12.334-15.934-3.343-38.902 4.998-44.949-3.861-2.782-4.077-.56-9.13 4.716-10.87 11.695-3.857 33.487-3.09 47.039-4.602 2.453-4.315 2.879-8.744 1.653-13.41-19.413.582-41.814 14.207-45.345 1.486-4.095-14.754 24.862-16.799 42.144-24.785.222-.103.388-.232.502-.378 1.717-2.21-1.305-8.729-2.665-10.892-5.865 10.213-17.193 18.432-29.21 11.106-13.372-8.154 2.052-19.66 8.196-24.29l-.002-.003c14.695-11.167 3.177-19.433-4.419-27.549L88.159 149.786z"
    fill="#F15A24"
  />
</svg>
