<svg width="24" height="24" viewBox="0 0 200 200" fill="currentColor" xmlns="http://www.w3.org/2000/svg">
  <path d="M54.758 119.575c-8.658-8.658-13.425-20.167-13.425-32.408 0-12.234 4.767-23.742 13.425-32.4 8.659-8.659 20.167-13.434 32.409-13.434 12.241 0 23.75 4.775 32.408 13.434C128.233 63.425 133 74.933 133 87.167c0 12.241-4.767 23.75-13.425 32.408C110.917 128.233 99.408 133 87.167 133c-12.242 0-23.75-4.767-32.409-13.425Zm111.6 40.892-38.083-38.092c8.425-9.808 13.058-22.133 13.058-35.208 0-14.467-5.633-28.067-15.866-38.292C115.242 38.642 101.633 33 87.167 33 72.7 33 59.1 38.642 48.867 48.875 38.633 59.1 33 72.7 33 87.167c0 14.475 5.633 28.066 15.867 38.3C59.1 135.7 72.7 141.333 87.167 141.333c13.075 0 25.4-4.633 35.216-13.066l38.084 38.091 5.891-5.891Z" />
</svg>
