<svg xmlns="http://www.w3.org/2000/svg" viewBox="0 0 200 200" width="24" height="24" role="img" aria-label="Cart icon">
  <title>Cart</title>
  <g>
    <path d="M100 180a3.81 3.81 0 0 1-3.81-3.81V64.444a3.81 3.81 0 1 1 7.62 0V176.19A3.81 3.81 0 0 1 100 180z" fill="#112F5B" data-color="1"/>
    <path d="M176.19 108.889H23.81a3.81 3.81 0 0 1-3.81-3.81V64.444a3.81 3.81 0 0 1 3.81-3.81h152.38a3.81 3.81 0 0 1 3.81 3.81v40.635a3.809 3.809 0 0 1-3.81 3.81zM27.619 101.27h144.762V68.254H27.619v33.016z" fill="#112F5B" data-color="1"/>
    <path d="M100 68.254a3.81 3.81 0 0 1-3.81-3.81c0-19.961-9.886-36.825-21.587-36.825-9.102 0-16.508 7.405-16.508 16.508s7.406 16.508 16.508 16.508a3.81 3.81 0 1 1 0 7.62c-13.304 0-24.127-10.823-24.127-24.127S61.3 20 74.603 20c16.377 0 29.206 19.522 29.206 44.444a3.808 3.808 0 0 1-3.809 3.81z" fill="#112F5B" data-color="1"/>
    <path d="M125.397 68.254a3.81 3.81 0 1 1 0-7.62c9.102 0 16.508-7.405 16.508-16.508s-7.406-16.508-16.508-16.508c-11.701 0-21.587 16.864-21.587 36.825a3.81 3.81 0 1 1-7.62 0C96.19 39.522 109.02 20 125.397 20c13.304 0 24.127 10.823 24.127 24.127S138.7 68.254 125.397 68.254z" fill="#112F5B" data-color="1"/>
    <path d="M155.873 180H44.127c-7.702 0-13.968-6.266-13.968-13.968V105.08a3.81 3.81 0 1 1 7.62 0v60.952a6.356 6.356 0 0 0 6.349 6.349h111.746a6.356 6.356 0 0 0 6.349-6.349V105.08a3.81 3.81 0 1 1 7.62 0v60.952c-.002 7.702-6.268 13.968-13.97 13.968z" fill="#112F5B" data-color="1"/>
  </g>
</svg>
